STARTFONT 2.1
FONT -FontForge-Bm437 EverexME 5x8-Normal-R-Normal--8-60-96-96-C-50-WinRoman-0
SIZE 6 96 96
FONTBOUNDINGBOX 5 8 0 -1
COMMENT "Generated by fontforge, http://fontforge.sourceforge.net"
COMMENT "FON conversion by VileR, 2020; license: CC BY-SA 4.0"
STARTPROPERTIES 34
FOUNDRY "FontForge"
FAMILY_NAME "Bm437 EverexME 5x8"
WEIGHT_NAME "Normal"
SLANT "R"
SETWIDTH_NAME "Normal"
ADD_STYLE_NAME ""
PIXEL_SIZE 8
POINT_SIZE 60
RESOLUTION_X 96
RESOLUTION_Y 96
SPACING "C"
AVERAGE_WIDTH 50
CHARSET_REGISTRY "WinRoman"
CHARSET_ENCODING "0"
FONTNAME_REGISTRY ""
CHARSET_COLLECTIONS "WinRoman"
FONT_NAME "Bm437EverexME5x8"
FACE_NAME "Bm437 EverexME 5x8"
COPYRIGHT "FON conversion by VileR, 2020; license: CC BY-SA 4.0"
FONT_VERSION "001.000"
FONT_ASCENT 6
FONT_DESCENT 2
UNDERLINE_POSITION -1
UNDERLINE_THICKNESS 1
X_HEIGHT 4
CAP_HEIGHT 6
RAW_ASCENT 800
RAW_DESCENT 200
NORM_SPACE 5
RELATIVE_WEIGHT 40
RELATIVE_SETWIDTH 50
FIGURE_WIDTH 5
AVG_LOWERCASE_WIDTH 50
AVG_UPPERCASE_WIDTH 50
ENDPROPERTIES
CHARS 256
STARTCHAR uni0000
ENCODING 0
SWIDTH 625 0
DWIDTH 5 0
BBX 1 1 4 -1
BITMAP
00
ENDCHAR
STARTCHAR uni0001
ENCODING 1
SWIDTH 625 0
DWIDTH 5 0
BBX 5 7 0 0
BITMAP
70
88
D8
88
F8
A8
70
ENDCHAR
STARTCHAR uni0002
ENCODING 2
SWIDTH 625 0
DWIDTH 5 0
BBX 5 7 0 0
BITMAP
70
F8
A8
F8
88
D8
70
ENDCHAR
STARTCHAR uni0003
ENCODING 3
SWIDTH 625 0
DWIDTH 5 0
BBX 5 7 0 0
BITMAP
50
F8
F8
F8
F8
70
20
ENDCHAR
STARTCHAR uni0004
ENCODING 4
SWIDTH 625 0
DWIDTH 5 0
BBX 5 5 0 1
BITMAP
20
70
F8
70
20
ENDCHAR
STARTCHAR uni0005
ENCODING 5
SWIDTH 625 0
DWIDTH 5 0
BBX 5 7 0 0
BITMAP
20
70
20
F8
A8
20
70
ENDCHAR
STARTCHAR uni0006
ENCODING 6
SWIDTH 625 0
DWIDTH 5 0
BBX 5 7 0 0
BITMAP
20
20
70
F8
F8
20
70
ENDCHAR
STARTCHAR uni0007
ENCODING 7
SWIDTH 625 0
DWIDTH 5 0
BBX 3 4 1 1
BITMAP
40
E0
E0
40
ENDCHAR
STARTCHAR uni0008
ENCODING 8
SWIDTH 625 0
DWIDTH 5 0
BBX 5 8 0 -1
BITMAP
F8
F8
D8
88
88
D8
F8
F8
ENDCHAR
STARTCHAR uni0009
ENCODING 9
SWIDTH 625 0
DWIDTH 5 0
BBX 3 4 1 1
BITMAP
40
A0
A0
40
ENDCHAR
STARTCHAR uni000A
ENCODING 10
SWIDTH 625 0
DWIDTH 5 0
BBX 5 8 0 -1
BITMAP
F8
F8
D8
A8
A8
D8
F8
F8
ENDCHAR
STARTCHAR uni000B
ENCODING 11
SWIDTH 625 0
DWIDTH 5 0
BBX 5 7 0 0
BITMAP
38
18
28
40
A0
A0
40
ENDCHAR
STARTCHAR uni000C
ENCODING 12
SWIDTH 625 0
DWIDTH 5 0
BBX 3 7 1 0
BITMAP
40
A0
A0
40
40
E0
40
ENDCHAR
STARTCHAR uni000D
ENCODING 13
SWIDTH 625 0
DWIDTH 5 0
BBX 5 7 0 0
BITMAP
38
28
38
20
60
E0
C0
ENDCHAR
STARTCHAR uni000E
ENCODING 14
SWIDTH 625 0
DWIDTH 5 0
BBX 5 7 0 0
BITMAP
38
28
38
28
68
C8
18
ENDCHAR
STARTCHAR uni000F
ENCODING 15
SWIDTH 625 0
DWIDTH 5 0
BBX 5 7 0 0
BITMAP
20
A8
50
D8
50
A8
20
ENDCHAR
STARTCHAR uni0010
ENCODING 16
SWIDTH 625 0
DWIDTH 5 0
BBX 4 7 0 0
BITMAP
80
C0
E0
F0
E0
C0
80
ENDCHAR
STARTCHAR uni0011
ENCODING 17
SWIDTH 625 0
DWIDTH 5 0
BBX 4 7 1 0
BITMAP
10
30
70
F0
70
30
10
ENDCHAR
STARTCHAR uni0012
ENCODING 18
SWIDTH 625 0
DWIDTH 5 0
BBX 5 8 0 -1
BITMAP
20
70
F8
20
20
F8
70
20
ENDCHAR
STARTCHAR uni0013
ENCODING 19
SWIDTH 625 0
DWIDTH 5 0
BBX 3 7 1 0
BITMAP
A0
A0
A0
A0
A0
00
A0
ENDCHAR
STARTCHAR uni0014
ENCODING 20
SWIDTH 625 0
DWIDTH 5 0
BBX 5 7 0 0
BITMAP
78
A8
A8
68
28
28
28
ENDCHAR
STARTCHAR uni0015
ENCODING 21
SWIDTH 625 0
DWIDTH 5 0
BBX 5 7 0 0
BITMAP
30
48
20
50
20
90
60
ENDCHAR
STARTCHAR uni0016
ENCODING 22
SWIDTH 625 0
DWIDTH 5 0
BBX 4 2 0 0
BITMAP
F0
F0
ENDCHAR
STARTCHAR uni0017
ENCODING 23
SWIDTH 625 0
DWIDTH 5 0
BBX 5 8 0 -1
BITMAP
20
70
F8
20
F8
70
20
F8
ENDCHAR
STARTCHAR uni0018
ENCODING 24
SWIDTH 625 0
DWIDTH 5 0
BBX 3 7 1 0
BITMAP
40
E0
40
40
40
40
40
ENDCHAR
STARTCHAR uni0019
ENCODING 25
SWIDTH 625 0
DWIDTH 5 0
BBX 3 7 1 0
BITMAP
40
40
40
40
40
E0
40
ENDCHAR
STARTCHAR uni001A
ENCODING 26
SWIDTH 625 0
DWIDTH 5 0
BBX 5 5 0 1
BITMAP
20
10
F8
10
20
ENDCHAR
STARTCHAR uni001B
ENCODING 27
SWIDTH 625 0
DWIDTH 5 0
BBX 5 5 0 1
BITMAP
20
40
F8
40
20
ENDCHAR
STARTCHAR uni001C
ENCODING 28
SWIDTH 625 0
DWIDTH 5 0
BBX 5 3 0 2
BITMAP
80
80
F8
ENDCHAR
STARTCHAR uni001D
ENCODING 29
SWIDTH 625 0
DWIDTH 5 0
BBX 5 3 0 2
BITMAP
50
F8
50
ENDCHAR
STARTCHAR uni001E
ENCODING 30
SWIDTH 625 0
DWIDTH 5 0
BBX 5 4 0 0
BITMAP
20
70
70
F8
ENDCHAR
STARTCHAR uni001F
ENCODING 31
SWIDTH 625 0
DWIDTH 5 0
BBX 5 4 0 2
BITMAP
F8
70
70
20
ENDCHAR
STARTCHAR space
ENCODING 32
SWIDTH 625 0
DWIDTH 5 0
BBX 1 1 4 -1
BITMAP
00
ENDCHAR
STARTCHAR exclam
ENCODING 33
SWIDTH 625 0
DWIDTH 5 0
BBX 3 7 1 0
BITMAP
40
E0
E0
40
40
00
40
ENDCHAR
STARTCHAR quotedbl
ENCODING 34
SWIDTH 625 0
DWIDTH 5 0
BBX 3 2 0 5
BITMAP
A0
A0
ENDCHAR
STARTCHAR numbersign
ENCODING 35
SWIDTH 625 0
DWIDTH 5 0
BBX 5 5 0 1
BITMAP
50
F8
50
F8
50
ENDCHAR
STARTCHAR dollar
ENCODING 36
SWIDTH 625 0
DWIDTH 5 0
BBX 4 7 0 0
BITMAP
40
70
80
60
10
E0
40
ENDCHAR
STARTCHAR percent
ENCODING 37
SWIDTH 625 0
DWIDTH 5 0
BBX 4 4 0 1
BITMAP
90
20
40
90
ENDCHAR
STARTCHAR ampersand
ENCODING 38
SWIDTH 625 0
DWIDTH 5 0
BBX 5 7 0 0
BITMAP
20
50
20
20
68
90
68
ENDCHAR
STARTCHAR quotesingle
ENCODING 39
SWIDTH 625 0
DWIDTH 5 0
BBX 2 2 1 5
BITMAP
40
80
ENDCHAR
STARTCHAR parenleft
ENCODING 40
SWIDTH 625 0
DWIDTH 5 0
BBX 2 7 1 0
BITMAP
40
80
80
80
80
80
40
ENDCHAR
STARTCHAR parenright
ENCODING 41
SWIDTH 625 0
DWIDTH 5 0
BBX 2 7 1 0
BITMAP
80
40
40
40
40
40
80
ENDCHAR
STARTCHAR asterisk
ENCODING 42
SWIDTH 625 0
DWIDTH 5 0
BBX 4 5 0 1
BITMAP
90
60
F0
60
90
ENDCHAR
STARTCHAR plus
ENCODING 43
SWIDTH 625 0
DWIDTH 5 0
BBX 3 5 1 1
BITMAP
40
40
E0
40
40
ENDCHAR
STARTCHAR comma
ENCODING 44
SWIDTH 625 0
DWIDTH 5 0
BBX 2 3 0 -1
BITMAP
40
40
80
ENDCHAR
STARTCHAR hyphen
ENCODING 45
SWIDTH 625 0
DWIDTH 5 0
BBX 4 1 0 3
BITMAP
F0
ENDCHAR
STARTCHAR period
ENCODING 46
SWIDTH 625 0
DWIDTH 5 0
BBX 1 2 1 0
BITMAP
80
80
ENDCHAR
STARTCHAR slash
ENCODING 47
SWIDTH 625 0
DWIDTH 5 0
BBX 4 7 0 0
BITMAP
10
10
20
20
40
40
80
ENDCHAR
STARTCHAR zero
ENCODING 48
SWIDTH 625 0
DWIDTH 5 0
BBX 4 7 0 0
BITMAP
60
90
B0
D0
90
90
60
ENDCHAR
STARTCHAR one
ENCODING 49
SWIDTH 625 0
DWIDTH 5 0
BBX 3 7 1 0
BITMAP
40
C0
40
40
40
40
E0
ENDCHAR
STARTCHAR two
ENCODING 50
SWIDTH 625 0
DWIDTH 5 0
BBX 4 7 0 0
BITMAP
60
90
10
20
40
80
F0
ENDCHAR
STARTCHAR three
ENCODING 51
SWIDTH 625 0
DWIDTH 5 0
BBX 4 7 0 0
BITMAP
60
90
10
20
10
90
60
ENDCHAR
STARTCHAR four
ENCODING 52
SWIDTH 625 0
DWIDTH 5 0
BBX 4 7 0 0
BITMAP
20
60
A0
A0
F0
20
20
ENDCHAR
STARTCHAR five
ENCODING 53
SWIDTH 625 0
DWIDTH 5 0
BBX 4 7 0 0
BITMAP
F0
80
E0
10
10
90
60
ENDCHAR
STARTCHAR six
ENCODING 54
SWIDTH 625 0
DWIDTH 5 0
BBX 4 7 0 0
BITMAP
20
40
80
E0
90
90
60
ENDCHAR
STARTCHAR seven
ENCODING 55
SWIDTH 625 0
DWIDTH 5 0
BBX 4 7 0 0
BITMAP
F0
90
10
20
40
40
40
ENDCHAR
STARTCHAR eight
ENCODING 56
SWIDTH 625 0
DWIDTH 5 0
BBX 4 7 0 0
BITMAP
60
90
90
60
90
90
60
ENDCHAR
STARTCHAR nine
ENCODING 57
SWIDTH 625 0
DWIDTH 5 0
BBX 4 7 0 0
BITMAP
60
90
90
70
10
10
60
ENDCHAR
STARTCHAR colon
ENCODING 58
SWIDTH 625 0
DWIDTH 5 0
BBX 1 4 1 1
BITMAP
80
00
00
80
ENDCHAR
STARTCHAR semicolon
ENCODING 59
SWIDTH 625 0
DWIDTH 5 0
BBX 2 6 0 -1
BITMAP
40
00
00
40
40
80
ENDCHAR
STARTCHAR less
ENCODING 60
SWIDTH 625 0
DWIDTH 5 0
BBX 3 5 0 1
BITMAP
20
40
80
40
20
ENDCHAR
STARTCHAR equal
ENCODING 61
SWIDTH 625 0
DWIDTH 5 0
BBX 4 3 0 2
BITMAP
F0
00
F0
ENDCHAR
STARTCHAR greater
ENCODING 62
SWIDTH 625 0
DWIDTH 5 0
BBX 3 5 1 1
BITMAP
80
40
20
40
80
ENDCHAR
STARTCHAR question
ENCODING 63
SWIDTH 625 0
DWIDTH 5 0
BBX 4 7 0 0
BITMAP
60
90
10
20
20
00
20
ENDCHAR
STARTCHAR at
ENCODING 64
SWIDTH 625 0
DWIDTH 5 0
BBX 5 7 0 0
BITMAP
70
88
B8
A8
B8
80
70
ENDCHAR
STARTCHAR A
ENCODING 65
SWIDTH 625 0
DWIDTH 5 0
BBX 4 7 0 0
BITMAP
60
90
90
F0
90
90
90
ENDCHAR
STARTCHAR B
ENCODING 66
SWIDTH 625 0
DWIDTH 5 0
BBX 4 7 0 0
BITMAP
E0
90
90
E0
90
90
E0
ENDCHAR
STARTCHAR C
ENCODING 67
SWIDTH 625 0
DWIDTH 5 0
BBX 4 7 0 0
BITMAP
60
90
80
80
80
90
60
ENDCHAR
STARTCHAR D
ENCODING 68
SWIDTH 625 0
DWIDTH 5 0
BBX 4 7 0 0
BITMAP
E0
90
90
90
90
90
E0
ENDCHAR
STARTCHAR E
ENCODING 69
SWIDTH 625 0
DWIDTH 5 0
BBX 4 7 0 0
BITMAP
F0
80
80
E0
80
80
F0
ENDCHAR
STARTCHAR F
ENCODING 70
SWIDTH 625 0
DWIDTH 5 0
BBX 4 7 0 0
BITMAP
F0
80
80
E0
80
80
80
ENDCHAR
STARTCHAR G
ENCODING 71
SWIDTH 625 0
DWIDTH 5 0
BBX 4 7 0 0
BITMAP
60
90
80
B0
90
90
60
ENDCHAR
STARTCHAR H
ENCODING 72
SWIDTH 625 0
DWIDTH 5 0
BBX 4 7 0 0
BITMAP
90
90
90
F0
90
90
90
ENDCHAR
STARTCHAR I
ENCODING 73
SWIDTH 625 0
DWIDTH 5 0
BBX 3 7 0 0
BITMAP
E0
40
40
40
40
40
E0
ENDCHAR
STARTCHAR J
ENCODING 74
SWIDTH 625 0
DWIDTH 5 0
BBX 4 7 0 0
BITMAP
10
10
10
10
10
90
60
ENDCHAR
STARTCHAR K
ENCODING 75
SWIDTH 625 0
DWIDTH 5 0
BBX 4 7 0 0
BITMAP
90
A0
C0
C0
A0
90
90
ENDCHAR
STARTCHAR L
ENCODING 76
SWIDTH 625 0
DWIDTH 5 0
BBX 4 7 0 0
BITMAP
80
80
80
80
80
80
F0
ENDCHAR
STARTCHAR M
ENCODING 77
SWIDTH 625 0
DWIDTH 5 0
BBX 4 7 0 0
BITMAP
90
F0
90
90
90
90
90
ENDCHAR
STARTCHAR N
ENCODING 78
SWIDTH 625 0
DWIDTH 5 0
BBX 4 7 0 0
BITMAP
90
D0
D0
B0
B0
90
90
ENDCHAR
STARTCHAR O
ENCODING 79
SWIDTH 625 0
DWIDTH 5 0
BBX 4 7 0 0
BITMAP
60
90
90
90
90
90
60
ENDCHAR
STARTCHAR P
ENCODING 80
SWIDTH 625 0
DWIDTH 5 0
BBX 4 7 0 0
BITMAP
E0
90
90
E0
80
80
80
ENDCHAR
STARTCHAR Q
ENCODING 81
SWIDTH 625 0
DWIDTH 5 0
BBX 4 7 0 0
BITMAP
60
90
90
90
D0
A0
70
ENDCHAR
STARTCHAR R
ENCODING 82
SWIDTH 625 0
DWIDTH 5 0
BBX 4 7 0 0
BITMAP
E0
90
90
E0
A0
90
90
ENDCHAR
STARTCHAR S
ENCODING 83
SWIDTH 625 0
DWIDTH 5 0
BBX 4 7 0 0
BITMAP
60
90
80
60
10
90
60
ENDCHAR
STARTCHAR T
ENCODING 84
SWIDTH 625 0
DWIDTH 5 0
BBX 3 7 0 0
BITMAP
E0
40
40
40
40
40
40
ENDCHAR
STARTCHAR U
ENCODING 85
SWIDTH 625 0
DWIDTH 5 0
BBX 4 7 0 0
BITMAP
90
90
90
90
90
90
60
ENDCHAR
STARTCHAR V
ENCODING 86
SWIDTH 625 0
DWIDTH 5 0
BBX 4 7 0 0
BITMAP
90
90
90
90
90
60
60
ENDCHAR
STARTCHAR W
ENCODING 87
SWIDTH 625 0
DWIDTH 5 0
BBX 4 7 0 0
BITMAP
90
90
90
90
90
F0
90
ENDCHAR
STARTCHAR X
ENCODING 88
SWIDTH 625 0
DWIDTH 5 0
BBX 4 7 0 0
BITMAP
90
90
60
60
90
90
90
ENDCHAR
STARTCHAR Y
ENCODING 89
SWIDTH 625 0
DWIDTH 5 0
BBX 5 7 0 0
BITMAP
88
88
50
20
20
20
20
ENDCHAR
STARTCHAR Z
ENCODING 90
SWIDTH 625 0
DWIDTH 5 0
BBX 4 7 0 0
BITMAP
F0
10
20
40
80
80
F0
ENDCHAR
STARTCHAR bracketleft
ENCODING 91
SWIDTH 625 0
DWIDTH 5 0
BBX 3 7 1 0
BITMAP
E0
80
80
80
80
80
E0
ENDCHAR
STARTCHAR backslash
ENCODING 92
SWIDTH 625 0
DWIDTH 5 0
BBX 4 7 0 0
BITMAP
80
40
40
20
20
10
10
ENDCHAR
STARTCHAR bracketright
ENCODING 93
SWIDTH 625 0
DWIDTH 5 0
BBX 3 7 0 0
BITMAP
E0
20
20
20
20
20
E0
ENDCHAR
STARTCHAR asciicircum
ENCODING 94
SWIDTH 625 0
DWIDTH 5 0
BBX 4 2 0 5
BITMAP
60
90
ENDCHAR
STARTCHAR underscore
ENCODING 95
SWIDTH 625 0
DWIDTH 5 0
BBX 5 1 0 -1
BITMAP
F8
ENDCHAR
STARTCHAR grave
ENCODING 96
SWIDTH 625 0
DWIDTH 5 0
BBX 2 3 1 4
BITMAP
80
80
40
ENDCHAR
STARTCHAR a
ENCODING 97
SWIDTH 625 0
DWIDTH 5 0
BBX 4 5 0 0
BITMAP
60
10
70
90
70
ENDCHAR
STARTCHAR b
ENCODING 98
SWIDTH 625 0
DWIDTH 5 0
BBX 4 7 0 0
BITMAP
80
80
E0
90
90
90
E0
ENDCHAR
STARTCHAR c
ENCODING 99
SWIDTH 625 0
DWIDTH 5 0
BBX 4 5 0 0
BITMAP
60
90
80
90
60
ENDCHAR
STARTCHAR d
ENCODING 100
SWIDTH 625 0
DWIDTH 5 0
BBX 4 7 0 0
BITMAP
10
10
70
90
90
90
70
ENDCHAR
STARTCHAR e
ENCODING 101
SWIDTH 625 0
DWIDTH 5 0
BBX 4 5 0 0
BITMAP
60
90
E0
80
60
ENDCHAR
STARTCHAR f
ENCODING 102
SWIDTH 625 0
DWIDTH 5 0
BBX 4 7 0 0
BITMAP
20
50
40
E0
40
40
40
ENDCHAR
STARTCHAR g
ENCODING 103
SWIDTH 625 0
DWIDTH 5 0
BBX 4 6 0 -1
BITMAP
60
90
90
70
10
60
ENDCHAR
STARTCHAR h
ENCODING 104
SWIDTH 625 0
DWIDTH 5 0
BBX 4 7 0 0
BITMAP
80
80
A0
D0
90
90
90
ENDCHAR
STARTCHAR i
ENCODING 105
SWIDTH 625 0
DWIDTH 5 0
BBX 1 7 1 0
BITMAP
80
00
80
80
80
80
80
ENDCHAR
STARTCHAR j
ENCODING 106
SWIDTH 625 0
DWIDTH 5 0
BBX 4 8 0 -1
BITMAP
10
00
10
10
10
90
90
60
ENDCHAR
STARTCHAR k
ENCODING 107
SWIDTH 625 0
DWIDTH 5 0
BBX 4 7 0 0
BITMAP
80
80
B0
E0
A0
90
90
ENDCHAR
STARTCHAR l
ENCODING 108
SWIDTH 625 0
DWIDTH 5 0
BBX 3 7 0 0
BITMAP
C0
40
40
40
40
40
E0
ENDCHAR
STARTCHAR m
ENCODING 109
SWIDTH 625 0
DWIDTH 5 0
BBX 4 5 0 0
BITMAP
90
F0
90
90
90
ENDCHAR
STARTCHAR n
ENCODING 110
SWIDTH 625 0
DWIDTH 5 0
BBX 4 5 0 0
BITMAP
E0
90
90
90
90
ENDCHAR
STARTCHAR o
ENCODING 111
SWIDTH 625 0
DWIDTH 5 0
BBX 4 5 0 0
BITMAP
60
90
90
90
60
ENDCHAR
STARTCHAR p
ENCODING 112
SWIDTH 625 0
DWIDTH 5 0
BBX 4 6 0 -1
BITMAP
E0
90
90
E0
80
80
ENDCHAR
STARTCHAR q
ENCODING 113
SWIDTH 625 0
DWIDTH 5 0
BBX 4 6 0 -1
BITMAP
70
90
90
70
10
10
ENDCHAR
STARTCHAR r
ENCODING 114
SWIDTH 625 0
DWIDTH 5 0
BBX 4 5 0 0
BITMAP
A0
D0
80
80
80
ENDCHAR
STARTCHAR s
ENCODING 115
SWIDTH 625 0
DWIDTH 5 0
BBX 4 5 0 0
BITMAP
70
80
60
10
E0
ENDCHAR
STARTCHAR t
ENCODING 116
SWIDTH 625 0
DWIDTH 5 0
BBX 4 7 0 0
BITMAP
40
40
E0
40
40
40
30
ENDCHAR
STARTCHAR u
ENCODING 117
SWIDTH 625 0
DWIDTH 5 0
BBX 4 5 0 0
BITMAP
90
90
90
B0
50
ENDCHAR
STARTCHAR v
ENCODING 118
SWIDTH 625 0
DWIDTH 5 0
BBX 4 5 0 0
BITMAP
90
90
90
60
60
ENDCHAR
STARTCHAR w
ENCODING 119
SWIDTH 625 0
DWIDTH 5 0
BBX 4 5 0 0
BITMAP
90
90
90
F0
90
ENDCHAR
STARTCHAR x
ENCODING 120
SWIDTH 625 0
DWIDTH 5 0
BBX 4 5 0 0
BITMAP
90
60
60
90
90
ENDCHAR
STARTCHAR y
ENCODING 121
SWIDTH 625 0
DWIDTH 5 0
BBX 4 6 0 -1
BITMAP
90
90
90
70
10
E0
ENDCHAR
STARTCHAR z
ENCODING 122
SWIDTH 625 0
DWIDTH 5 0
BBX 4 5 0 0
BITMAP
F0
20
40
80
F0
ENDCHAR
STARTCHAR braceleft
ENCODING 123
SWIDTH 625 0
DWIDTH 5 0
BBX 4 7 0 0
BITMAP
30
40
40
C0
40
40
30
ENDCHAR
STARTCHAR bar
ENCODING 124
SWIDTH 625 0
DWIDTH 5 0
BBX 1 7 1 0
BITMAP
80
80
80
00
80
80
80
ENDCHAR
STARTCHAR braceright
ENCODING 125
SWIDTH 625 0
DWIDTH 5 0
BBX 4 7 0 0
BITMAP
C0
20
20
30
20
20
C0
ENDCHAR
STARTCHAR asciitilde
ENCODING 126
SWIDTH 625 0
DWIDTH 5 0
BBX 4 2 0 5
BITMAP
50
A0
ENDCHAR
STARTCHAR uni007F
ENCODING 127
SWIDTH 625 0
DWIDTH 5 0
BBX 5 5 0 1
BITMAP
20
50
88
88
F8
ENDCHAR
STARTCHAR Euro
ENCODING 128
SWIDTH 625 0
DWIDTH 5 0
BBX 4 7 0 0
BITMAP
60
90
80
90
60
10
60
ENDCHAR
STARTCHAR NameMe.129
ENCODING 129
SWIDTH 625 0
DWIDTH 5 0
BBX 4 7 0 0
BITMAP
90
00
90
90
90
B0
50
ENDCHAR
STARTCHAR quotesinglbase
ENCODING 130
SWIDTH 625 0
DWIDTH 5 0
BBX 4 7 0 0
BITMAP
90
00
60
90
E0
80
60
ENDCHAR
STARTCHAR florin
ENCODING 131
SWIDTH 625 0
DWIDTH 5 0
BBX 4 7 0 0
BITMAP
20
50
60
10
70
90
70
ENDCHAR
STARTCHAR quotedblbase
ENCODING 132
SWIDTH 625 0
DWIDTH 5 0
BBX 4 7 0 0
BITMAP
90
00
60
10
70
90
70
ENDCHAR
STARTCHAR ellipsis
ENCODING 133
SWIDTH 625 0
DWIDTH 5 0
BBX 4 7 0 0
BITMAP
40
20
60
10
70
90
70
ENDCHAR
STARTCHAR dagger
ENCODING 134
SWIDTH 625 0
DWIDTH 5 0
BBX 4 7 0 0
BITMAP
60
00
60
10
70
90
70
ENDCHAR
STARTCHAR daggerdbl
ENCODING 135
SWIDTH 625 0
DWIDTH 5 0
BBX 4 6 0 0
BITMAP
60
90
80
70
20
40
ENDCHAR
STARTCHAR circumflex
ENCODING 136
SWIDTH 625 0
DWIDTH 5 0
BBX 4 7 0 0
BITMAP
60
90
60
90
E0
80
60
ENDCHAR
STARTCHAR perthousand
ENCODING 137
SWIDTH 625 0
DWIDTH 5 0
BBX 4 7 0 0
BITMAP
90
00
60
90
E0
80
60
ENDCHAR
STARTCHAR Scaron
ENCODING 138
SWIDTH 625 0
DWIDTH 5 0
BBX 4 7 0 0
BITMAP
40
20
60
90
E0
80
60
ENDCHAR
STARTCHAR guilsinglleft
ENCODING 139
SWIDTH 625 0
DWIDTH 5 0
BBX 4 6 0 0
BITMAP
90
00
60
20
20
70
ENDCHAR
STARTCHAR OE
ENCODING 140
SWIDTH 625 0
DWIDTH 5 0
BBX 4 7 0 0
BITMAP
60
90
00
60
20
20
70
ENDCHAR
STARTCHAR NameMe.141
ENCODING 141
SWIDTH 625 0
DWIDTH 5 0
BBX 3 7 0 0
BITMAP
40
20
00
C0
40
40
E0
ENDCHAR
STARTCHAR Zcaron
ENCODING 142
SWIDTH 625 0
DWIDTH 5 0
BBX 4 7 0 0
BITMAP
90
00
60
90
F0
90
90
ENDCHAR
STARTCHAR NameMe.143
ENCODING 143
SWIDTH 625 0
DWIDTH 5 0
BBX 4 7 0 0
BITMAP
60
60
00
60
90
F0
90
ENDCHAR
STARTCHAR NameMe.144
ENCODING 144
SWIDTH 625 0
DWIDTH 5 0
BBX 4 7 0 0
BITMAP
20
40
F0
80
E0
80
F0
ENDCHAR
STARTCHAR quoteleft
ENCODING 145
SWIDTH 625 0
DWIDTH 5 0
BBX 5 5 0 0
BITMAP
D0
28
70
A0
58
ENDCHAR
STARTCHAR quoteright
ENCODING 146
SWIDTH 625 0
DWIDTH 5 0
BBX 5 7 0 0
BITMAP
38
50
90
F8
90
90
98
ENDCHAR
STARTCHAR quotedblleft
ENCODING 147
SWIDTH 625 0
DWIDTH 5 0
BBX 4 7 0 0
BITMAP
40
A0
00
60
90
90
60
ENDCHAR
STARTCHAR quotedblright
ENCODING 148
SWIDTH 625 0
DWIDTH 5 0
BBX 4 6 0 0
BITMAP
90
00
60
90
90
60
ENDCHAR
STARTCHAR bullet
ENCODING 149
SWIDTH 625 0
DWIDTH 5 0
BBX 4 7 0 0
BITMAP
40
20
00
60
90
90
60
ENDCHAR
STARTCHAR endash
ENCODING 150
SWIDTH 625 0
DWIDTH 5 0
BBX 4 7 0 0
BITMAP
40
A0
00
90
90
90
60
ENDCHAR
STARTCHAR emdash
ENCODING 151
SWIDTH 625 0
DWIDTH 5 0
BBX 4 7 0 0
BITMAP
40
20
00
90
90
90
60
ENDCHAR
STARTCHAR tilde
ENCODING 152
SWIDTH 625 0
DWIDTH 5 0
BBX 4 7 0 -1
BITMAP
90
00
90
90
70
10
60
ENDCHAR
STARTCHAR trademark
ENCODING 153
SWIDTH 625 0
DWIDTH 5 0
BBX 4 7 0 0
BITMAP
90
00
60
90
90
90
60
ENDCHAR
STARTCHAR scaron
ENCODING 154
SWIDTH 625 0
DWIDTH 5 0
BBX 4 7 0 0
BITMAP
90
00
90
90
90
90
60
ENDCHAR
STARTCHAR guilsinglright
ENCODING 155
SWIDTH 625 0
DWIDTH 5 0
BBX 4 6 0 0
BITMAP
20
70
80
80
70
20
ENDCHAR
STARTCHAR oe
ENCODING 156
SWIDTH 625 0
DWIDTH 5 0
BBX 4 7 0 0
BITMAP
20
50
40
E0
40
90
F0
ENDCHAR
STARTCHAR NameMe.157
ENCODING 157
SWIDTH 625 0
DWIDTH 5 0
BBX 5 7 0 0
BITMAP
88
50
F8
20
F8
20
20
ENDCHAR
STARTCHAR zcaron
ENCODING 158
SWIDTH 625 0
DWIDTH 5 0
BBX 5 7 0 0
BITMAP
E0
90
E0
90
B8
90
98
ENDCHAR
STARTCHAR Ydieresis
ENCODING 159
SWIDTH 625 0
DWIDTH 5 0
BBX 5 7 0 0
BITMAP
10
28
20
70
20
A0
40
ENDCHAR
STARTCHAR uni00A0
ENCODING 160
SWIDTH 625 0
DWIDTH 5 0
BBX 4 7 0 0
BITMAP
20
40
60
10
70
90
70
ENDCHAR
STARTCHAR exclamdown
ENCODING 161
SWIDTH 625 0
DWIDTH 5 0
BBX 3 7 1 0
BITMAP
40
80
00
C0
40
40
E0
ENDCHAR
STARTCHAR cent
ENCODING 162
SWIDTH 625 0
DWIDTH 5 0
BBX 4 7 0 0
BITMAP
20
40
00
60
90
90
60
ENDCHAR
STARTCHAR sterling
ENCODING 163
SWIDTH 625 0
DWIDTH 5 0
BBX 4 7 0 0
BITMAP
20
40
00
90
90
90
60
ENDCHAR
STARTCHAR currency
ENCODING 164
SWIDTH 625 0
DWIDTH 5 0
BBX 4 7 0 0
BITMAP
50
B0
00
E0
90
90
90
ENDCHAR
STARTCHAR yen
ENCODING 165
SWIDTH 625 0
DWIDTH 5 0
BBX 4 7 0 0
BITMAP
50
B0
00
D0
B0
90
90
ENDCHAR
STARTCHAR brokenbar
ENCODING 166
SWIDTH 625 0
DWIDTH 5 0
BBX 4 5 0 2
BITMAP
60
A0
70
00
F0
ENDCHAR
STARTCHAR section
ENCODING 167
SWIDTH 625 0
DWIDTH 5 0
BBX 4 5 0 2
BITMAP
60
90
60
00
F0
ENDCHAR
STARTCHAR dieresis
ENCODING 168
SWIDTH 625 0
DWIDTH 5 0
BBX 4 7 0 0
BITMAP
20
00
20
20
40
90
60
ENDCHAR
STARTCHAR copyright
ENCODING 169
SWIDTH 625 0
DWIDTH 5 0
BBX 5 3 0 2
BITMAP
F8
80
80
ENDCHAR
STARTCHAR ordfeminine
ENCODING 170
SWIDTH 625 0
DWIDTH 5 0
BBX 5 3 0 2
BITMAP
F8
08
08
ENDCHAR
STARTCHAR guillemotleft
ENCODING 171
SWIDTH 625 0
DWIDTH 5 0
BBX 4 7 0 0
BITMAP
90
A0
40
A0
10
20
70
ENDCHAR
STARTCHAR logicalnot
ENCODING 172
SWIDTH 625 0
DWIDTH 5 0
BBX 5 7 0 0
BITMAP
90
A0
40
90
30
78
10
ENDCHAR
STARTCHAR uni00AD
ENCODING 173
SWIDTH 625 0
DWIDTH 5 0
BBX 3 7 0 0
BITMAP
40
00
40
40
E0
E0
40
ENDCHAR
STARTCHAR registered
ENCODING 174
SWIDTH 625 0
DWIDTH 5 0
BBX 5 4 0 1
BITMAP
48
90
90
48
ENDCHAR
STARTCHAR macron
ENCODING 175
SWIDTH 625 0
DWIDTH 5 0
BBX 5 4 0 1
BITMAP
90
48
48
90
ENDCHAR
STARTCHAR degree
ENCODING 176
SWIDTH 625 0
DWIDTH 5 0
BBX 5 8 0 -1
BITMAP
48
90
48
90
48
90
48
90
ENDCHAR
STARTCHAR plusminus
ENCODING 177
SWIDTH 625 0
DWIDTH 5 0
BBX 5 8 0 -1
BITMAP
50
A8
50
A8
50
A8
50
A8
ENDCHAR
STARTCHAR uni00B2
ENCODING 178
SWIDTH 625 0
DWIDTH 5 0
BBX 5 8 0 -1
BITMAP
D8
70
D8
E8
D8
70
D8
E8
ENDCHAR
STARTCHAR uni00B3
ENCODING 179
SWIDTH 625 0
DWIDTH 5 0
BBX 1 8 1 -1
BITMAP
80
80
80
80
80
80
80
80
ENDCHAR
STARTCHAR acute
ENCODING 180
SWIDTH 625 0
DWIDTH 5 0
BBX 2 8 0 -1
BITMAP
40
40
40
40
C0
40
40
40
ENDCHAR
STARTCHAR mu
ENCODING 181
SWIDTH 625 0
DWIDTH 5 0
BBX 2 8 0 -1
BITMAP
40
40
C0
40
C0
40
40
40
ENDCHAR
STARTCHAR paragraph
ENCODING 182
SWIDTH 625 0
DWIDTH 5 0
BBX 4 8 0 -1
BITMAP
50
50
50
50
D0
50
50
50
ENDCHAR
STARTCHAR periodcentered
ENCODING 183
SWIDTH 625 0
DWIDTH 5 0
BBX 4 4 0 -1
BITMAP
F0
50
50
50
ENDCHAR
STARTCHAR cedilla
ENCODING 184
SWIDTH 625 0
DWIDTH 5 0
BBX 2 6 0 -1
BITMAP
C0
40
C0
40
40
40
ENDCHAR
STARTCHAR uni00B9
ENCODING 185
SWIDTH 625 0
DWIDTH 5 0
BBX 4 8 0 -1
BITMAP
50
50
D0
10
D0
50
50
50
ENDCHAR
STARTCHAR ordmasculine
ENCODING 186
SWIDTH 625 0
DWIDTH 5 0
BBX 3 8 1 -1
BITMAP
A0
A0
A0
A0
A0
A0
A0
A0
ENDCHAR
STARTCHAR guillemotright
ENCODING 187
SWIDTH 625 0
DWIDTH 5 0
BBX 4 6 0 -1
BITMAP
F0
10
D0
50
50
50
ENDCHAR
STARTCHAR onequarter
ENCODING 188
SWIDTH 625 0
DWIDTH 5 0
BBX 4 5 0 2
BITMAP
50
50
D0
10
F0
ENDCHAR
STARTCHAR onehalf
ENCODING 189
SWIDTH 625 0
DWIDTH 5 0
BBX 4 5 0 2
BITMAP
50
50
50
50
F0
ENDCHAR
STARTCHAR threequarters
ENCODING 190
SWIDTH 625 0
DWIDTH 5 0
BBX 2 5 0 2
BITMAP
40
40
C0
40
C0
ENDCHAR
STARTCHAR questiondown
ENCODING 191
SWIDTH 625 0
DWIDTH 5 0
BBX 2 4 0 -1
BITMAP
C0
40
40
40
ENDCHAR
STARTCHAR Agrave
ENCODING 192
SWIDTH 625 0
DWIDTH 5 0
BBX 4 5 1 2
BITMAP
80
80
80
80
F0
ENDCHAR
STARTCHAR Aacute
ENCODING 193
SWIDTH 625 0
DWIDTH 5 0
BBX 5 5 0 2
BITMAP
40
40
40
40
F8
ENDCHAR
STARTCHAR Acircumflex
ENCODING 194
SWIDTH 625 0
DWIDTH 5 0
BBX 5 4 0 -1
BITMAP
F8
40
40
40
ENDCHAR
STARTCHAR Atilde
ENCODING 195
SWIDTH 625 0
DWIDTH 5 0
BBX 4 8 1 -1
BITMAP
80
80
80
80
F0
80
80
80
ENDCHAR
STARTCHAR Adieresis
ENCODING 196
SWIDTH 625 0
DWIDTH 5 0
BBX 5 1 0 2
BITMAP
F8
ENDCHAR
STARTCHAR Aring
ENCODING 197
SWIDTH 625 0
DWIDTH 5 0
BBX 5 8 0 -1
BITMAP
40
40
40
40
F8
40
40
40
ENDCHAR
STARTCHAR AE
ENCODING 198
SWIDTH 625 0
DWIDTH 5 0
BBX 4 8 1 -1
BITMAP
80
80
F0
80
F0
80
80
80
ENDCHAR
STARTCHAR Ccedilla
ENCODING 199
SWIDTH 625 0
DWIDTH 5 0
BBX 4 8 1 -1
BITMAP
A0
A0
A0
A0
B0
A0
A0
A0
ENDCHAR
STARTCHAR Egrave
ENCODING 200
SWIDTH 625 0
DWIDTH 5 0
BBX 4 5 1 2
BITMAP
A0
A0
B0
80
F0
ENDCHAR
STARTCHAR Eacute
ENCODING 201
SWIDTH 625 0
DWIDTH 5 0
BBX 4 6 1 -1
BITMAP
F0
80
B0
A0
A0
A0
ENDCHAR
STARTCHAR Ecircumflex
ENCODING 202
SWIDTH 625 0
DWIDTH 5 0
BBX 5 5 0 2
BITMAP
50
50
D8
00
F8
ENDCHAR
STARTCHAR Edieresis
ENCODING 203
SWIDTH 625 0
DWIDTH 5 0
BBX 5 6 0 -1
BITMAP
F8
00
D8
50
50
50
ENDCHAR
STARTCHAR Igrave
ENCODING 204
SWIDTH 625 0
DWIDTH 5 0
BBX 4 8 1 -1
BITMAP
A0
A0
B0
80
B0
A0
A0
A0
ENDCHAR
STARTCHAR Iacute
ENCODING 205
SWIDTH 625 0
DWIDTH 5 0
BBX 5 3 0 2
BITMAP
F8
00
F8
ENDCHAR
STARTCHAR Icircumflex
ENCODING 206
SWIDTH 625 0
DWIDTH 5 0
BBX 5 8 0 -1
BITMAP
50
50
D8
00
D8
50
50
50
ENDCHAR
STARTCHAR Idieresis
ENCODING 207
SWIDTH 625 0
DWIDTH 5 0
BBX 5 5 0 2
BITMAP
40
40
F8
00
F8
ENDCHAR
STARTCHAR Eth
ENCODING 208
SWIDTH 625 0
DWIDTH 5 0
BBX 5 5 0 2
BITMAP
50
50
50
50
F8
ENDCHAR
STARTCHAR Ntilde
ENCODING 209
SWIDTH 625 0
DWIDTH 5 0
BBX 5 6 0 -1
BITMAP
F8
00
F8
40
40
40
ENDCHAR
STARTCHAR Ograve
ENCODING 210
SWIDTH 625 0
DWIDTH 5 0
BBX 5 4 0 -1
BITMAP
F8
50
50
50
ENDCHAR
STARTCHAR Oacute
ENCODING 211
SWIDTH 625 0
DWIDTH 5 0
BBX 4 5 1 2
BITMAP
A0
A0
A0
A0
F0
ENDCHAR
STARTCHAR Ocircumflex
ENCODING 212
SWIDTH 625 0
DWIDTH 5 0
BBX 4 5 1 2
BITMAP
80
80
F0
80
F0
ENDCHAR
STARTCHAR Otilde
ENCODING 213
SWIDTH 625 0
DWIDTH 5 0
BBX 4 6 1 -1
BITMAP
F0
80
F0
80
80
80
ENDCHAR
STARTCHAR Odieresis
ENCODING 214
SWIDTH 625 0
DWIDTH 5 0
BBX 4 4 1 -1
BITMAP
F0
A0
A0
A0
ENDCHAR
STARTCHAR multiply
ENCODING 215
SWIDTH 625 0
DWIDTH 5 0
BBX 5 8 0 -1
BITMAP
50
50
50
50
F8
50
50
50
ENDCHAR
STARTCHAR Oslash
ENCODING 216
SWIDTH 625 0
DWIDTH 5 0
BBX 5 8 0 -1
BITMAP
40
40
F8
40
F8
40
40
40
ENDCHAR
STARTCHAR Ugrave
ENCODING 217
SWIDTH 625 0
DWIDTH 5 0
BBX 2 5 0 2
BITMAP
40
40
40
40
C0
ENDCHAR
STARTCHAR Uacute
ENCODING 218
SWIDTH 625 0
DWIDTH 5 0
BBX 4 4 1 -1
BITMAP
F0
80
80
80
ENDCHAR
STARTCHAR Ucircumflex
ENCODING 219
SWIDTH 625 0
DWIDTH 5 0
BBX 5 8 0 -1
BITMAP
F8
F8
F8
F8
F8
F8
F8
F8
ENDCHAR
STARTCHAR Udieresis
ENCODING 220
SWIDTH 625 0
DWIDTH 5 0
BBX 5 4 0 -1
BITMAP
F8
F8
F8
F8
ENDCHAR
STARTCHAR Yacute
ENCODING 221
SWIDTH 625 0
DWIDTH 5 0
BBX 3 8 0 -1
BITMAP
E0
E0
E0
E0
E0
E0
E0
E0
ENDCHAR
STARTCHAR Thorn
ENCODING 222
SWIDTH 625 0
DWIDTH 5 0
BBX 3 8 2 -1
BITMAP
E0
E0
E0
E0
E0
E0
E0
E0
ENDCHAR
STARTCHAR germandbls
ENCODING 223
SWIDTH 625 0
DWIDTH 5 0
BBX 5 4 0 3
BITMAP
F8
F8
F8
F8
ENDCHAR
STARTCHAR agrave
ENCODING 224
SWIDTH 625 0
DWIDTH 5 0
BBX 5 5 0 0
BITMAP
08
50
A0
A0
58
ENDCHAR
STARTCHAR aacute
ENCODING 225
SWIDTH 625 0
DWIDTH 5 0
BBX 4 7 0 -1
BITMAP
60
90
E0
90
E0
80
80
ENDCHAR
STARTCHAR acircumflex
ENCODING 226
SWIDTH 625 0
DWIDTH 5 0
BBX 4 7 0 0
BITMAP
F0
90
80
80
80
80
80
ENDCHAR
STARTCHAR atilde
ENCODING 227
SWIDTH 625 0
DWIDTH 5 0
BBX 5 5 0 0
BITMAP
F8
D0
50
50
50
ENDCHAR
STARTCHAR adieresis
ENCODING 228
SWIDTH 625 0
DWIDTH 5 0
BBX 4 7 0 0
BITMAP
F0
90
40
20
40
90
F0
ENDCHAR
STARTCHAR aring
ENCODING 229
SWIDTH 625 0
DWIDTH 5 0
BBX 4 5 0 0
BITMAP
70
A0
A0
A0
40
ENDCHAR
STARTCHAR ae
ENCODING 230
SWIDTH 625 0
DWIDTH 5 0
BBX 4 6 0 -1
BITMAP
50
50
50
70
40
80
ENDCHAR
STARTCHAR ccedilla
ENCODING 231
SWIDTH 625 0
DWIDTH 5 0
BBX 5 5 0 0
BITMAP
58
A0
20
20
20
ENDCHAR
STARTCHAR egrave
ENCODING 232
SWIDTH 625 0
DWIDTH 5 0
BBX 3 6 0 0
BITMAP
E0
40
A0
A0
40
E0
ENDCHAR
STARTCHAR eacute
ENCODING 233
SWIDTH 625 0
DWIDTH 5 0
BBX 4 6 0 0
BITMAP
60
90
F0
90
90
60
ENDCHAR
STARTCHAR ecircumflex
ENCODING 234
SWIDTH 625 0
DWIDTH 5 0
BBX 5 6 0 0
BITMAP
70
88
88
50
50
D8
ENDCHAR
STARTCHAR edieresis
ENCODING 235
SWIDTH 625 0
DWIDTH 5 0
BBX 4 7 0 0
BITMAP
60
80
40
60
90
90
60
ENDCHAR
STARTCHAR igrave
ENCODING 236
SWIDTH 625 0
DWIDTH 5 0
BBX 5 4 0 1
BITMAP
50
A8
A8
50
ENDCHAR
STARTCHAR iacute
ENCODING 237
SWIDTH 625 0
DWIDTH 5 0
BBX 4 6 0 0
BITMAP
10
60
B0
D0
60
80
ENDCHAR
STARTCHAR icircumflex
ENCODING 238
SWIDTH 625 0
DWIDTH 5 0
BBX 4 5 0 1
BITMAP
70
80
F0
80
70
ENDCHAR
STARTCHAR idieresis
ENCODING 239
SWIDTH 625 0
DWIDTH 5 0
BBX 4 6 0 0
BITMAP
60
90
90
90
90
90
ENDCHAR
STARTCHAR eth
ENCODING 240
SWIDTH 625 0
DWIDTH 5 0
BBX 4 5 0 1
BITMAP
F0
00
F0
00
F0
ENDCHAR
STARTCHAR ntilde
ENCODING 241
SWIDTH 625 0
DWIDTH 5 0
BBX 3 5 1 1
BITMAP
40
E0
40
00
E0
ENDCHAR
STARTCHAR ograve
ENCODING 242
SWIDTH 625 0
DWIDTH 5 0
BBX 4 7 0 0
BITMAP
80
40
20
40
80
00
F0
ENDCHAR
STARTCHAR oacute
ENCODING 243
SWIDTH 625 0
DWIDTH 5 0
BBX 4 7 0 0
BITMAP
20
40
80
40
20
00
F0
ENDCHAR
STARTCHAR ocircumflex
ENCODING 244
SWIDTH 625 0
DWIDTH 5 0
BBX 3 7 1 0
BITMAP
40
A0
A0
80
80
80
80
ENDCHAR
STARTCHAR otilde
ENCODING 245
SWIDTH 625 0
DWIDTH 5 0
BBX 3 7 0 0
BITMAP
20
20
20
20
A0
A0
40
ENDCHAR
STARTCHAR odieresis
ENCODING 246
SWIDTH 625 0
DWIDTH 5 0
BBX 4 5 0 1
BITMAP
60
00
F0
00
60
ENDCHAR
STARTCHAR divide
ENCODING 247
SWIDTH 625 0
DWIDTH 5 0
BBX 4 5 0 1
BITMAP
50
A0
00
50
A0
ENDCHAR
STARTCHAR oslash
ENCODING 248
SWIDTH 625 0
DWIDTH 5 0
BBX 4 3 0 4
BITMAP
60
90
60
ENDCHAR
STARTCHAR ugrave
ENCODING 249
SWIDTH 625 0
DWIDTH 5 0
BBX 2 2 1 3
BITMAP
C0
C0
ENDCHAR
STARTCHAR uacute
ENCODING 250
SWIDTH 625 0
DWIDTH 5 0
BBX 2 1 1 3
BITMAP
C0
ENDCHAR
STARTCHAR ucircumflex
ENCODING 251
SWIDTH 625 0
DWIDTH 5 0
BBX 4 7 0 0
BITMAP
30
20
20
20
A0
60
20
ENDCHAR
STARTCHAR udieresis
ENCODING 252
SWIDTH 625 0
DWIDTH 5 0
BBX 3 4 0 3
BITMAP
C0
A0
A0
A0
ENDCHAR
STARTCHAR yacute
ENCODING 253
SWIDTH 625 0
DWIDTH 5 0
BBX 3 4 0 3
BITMAP
C0
20
40
E0
ENDCHAR
STARTCHAR thorn
ENCODING 254
SWIDTH 625 0
DWIDTH 5 0
BBX 3 3 0 2
BITMAP
E0
E0
E0
ENDCHAR
STARTCHAR ydieresis
ENCODING 255
SWIDTH 625 0
DWIDTH 5 0
BBX 1 1 4 -1
BITMAP
00
ENDCHAR
ENDFONT
